# xmcd
#
# Track frame offsets:
#	150
#	14557
#	29557
#	45163
#	64063
#	78259
#	90579
#	106565
#	120427
#	136710
#	151472
#	170376
#	183042
#	201122
#	217014
#
# Disc length: 3079 seconds
#
# Revision: 1
# Processed by: cddbd v1.5.2PL0 Copyright (c) Steve Scherf et al.
# Submitted via: audiograbber 1.83.01
#
DISCID=b40c050f
DTITLE=Various Artist - Pop Goes The 70's - Magic Disc 2
DYEAR=2014
DGENRE=Country
TTITLE0=Glen Campbell - Rhinestone Cowboy
TTITLE1=Cornelius Brothers and Sister Rose - Too Late To Turn Back Now
TTITLE2=The Sylvers - Boogie Fever
TTITLE3=Little River Band - Reminiscing
TTITLE4=Nick Gilder - Hot Child In The City
TTITLE5=The Osmonds - One Bad Apple
TTITLE6=Olivia Newton-John - Have You Never Been Mellow
TTITLE7=Pilot - Magic
TTITLE8=A Taste Of Honey - Boogie Oogie Oogie
TTITLE9=Maxine Nightingale - Right Back Where We Started From
TTITLE10=Robert John - Sad Eyes
TTITLE11=Bill Conti - Gonna Fly Now
TTITLE12=The Knack - My Sharona
TTITLE13=Hot Chocolate - You Sexy Thing
TTITLE14=Donny Osmond - Puppy Love
EXTD=
EXTT0=
EXTT1=
EXTT2=
EXTT3=
EXTT4=
EXTT5=
EXTT6=
EXTT7=
EXTT8=
EXTT9=
EXTT10=
EXTT11=
EXTT12=
EXTT13=
EXTT14=
PLAYORDER=
